<svg xmlns="http://www.w3.org/2000/svg" width="900" height="200" viewBox="0 0 900 200">
  <defs>
    <linearGradient id="bg" x1="0%" y1="0%" x2="100%" y2="100%">
      <stop offset="0%" style="stop-color:#0d1117;stop-opacity:1" />
      <stop offset="100%" style="stop-color:#161b22;stop-opacity:1" />
    </linearGradient>
    <linearGradient id="accent" x1="0%" y1="0%" x2="100%" y2="0%">
      <stop offset="0%" style="stop-color:#58a6ff" />
      <stop offset="50%" style="stop-color:#bc8cff" />
      <stop offset="100%" style="stop-color:#f778ba" />
    </linearGradient>
    <filter id="glow">
      <feGaussianBlur stdDeviation="3" result="coloredBlur"/>
      <feMerge>
        <feMergeNode in="coloredBlur"/>
        <feMergeNode in="SourceGraphic"/>
      </feMerge>
    </filter>
  </defs>
  
  <!-- Background -->
  <rect width="900" height="200" rx="12" fill="url(#bg)" />
  
  <!-- Subtle grid pattern -->
  <g opacity="0.03" stroke="#58a6ff" stroke-width="0.5">
    <line x1="0" y1="40" x2="900" y2="40" />
    <line x1="0" y1="80" x2="900" y2="80" />
    <line x1="0" y1="120" x2="900" y2="120" />
    <line x1="0" y1="160" x2="900" y2="160" />
    <line x1="100" y1="0" x2="100" y2="200" />
    <line x1="200" y1="0" x2="200" y2="200" />
    <line x1="300" y1="0" x2="300" y2="200" />
    <line x1="400" y1="0" x2="400" y2="200" />
    <line x1="500" y1="0" x2="500" y2="200" />
    <line x1="600" y1="0" x2="600" y2="200" />
    <line x1="700" y1="0" x2="700" y2="200" />
    <line x1="800" y1="0" x2="800" y2="200" />
  </g>
  
  <!-- Database icon -->
  <g transform="translate(255, 45)" filter="url(#glow)">
    <ellipse cx="30" cy="8" rx="28" ry="8" fill="none" stroke="url(#accent)" stroke-width="2"/>
    <path d="M2,8 v25 a28,8 0 0,0 56,0 v-25" fill="none" stroke="url(#accent)" stroke-width="2"/>
    <ellipse cx="30" cy="33" rx="28" ry="8" fill="none" stroke="url(#accent)" stroke-width="1.5" opacity="0.6"/>
    <ellipse cx="30" cy="20" rx="28" ry="8" fill="none" stroke="url(#accent)" stroke-width="1.5" opacity="0.4"/>
    <!-- Arrow pointing out -->
    <line x1="58" y1="20" x2="78" y2="20" stroke="#58a6ff" stroke-width="2" opacity="0.8"/>
    <polygon points="76,15 86,20 76,25" fill="#58a6ff" opacity="0.8"/>
  </g>
  
  <!-- Title -->
  <text x="370" y="85" font-family="'SF Mono', 'Fira Code', 'Cascadia Code', monospace" font-size="48" font-weight="700" fill="url(#accent)" filter="url(#glow)">Sh4d0wDB</text>
  
  <!-- Tagline -->
  <text x="450" y="125" font-family="-apple-system, BlinkMacSystemFont, 'Segoe UI', sans-serif" font-size="18" fill="#8b949e" text-anchor="middle">Kill your Markdown files.</text>
  
  <!-- Stats bar -->
  <g transform="translate(0, 150)">
    <rect x="100" y="0" width="700" height="36" rx="8" fill="#21262d" />
    
    <text x="200" y="23" font-family="'SF Mono', monospace" font-size="13" fill="#58a6ff" text-anchor="middle" font-weight="600">11 bytes</text>
    <text x="200" y="12" font-family="sans-serif" font-size="9" fill="#484f58" text-anchor="middle">CONFIG</text>
    
    <line x1="312" y1="6" x2="312" y2="30" stroke="#30363d" stroke-width="1"/>
    
    <text x="410" y="23" font-family="'SF Mono', monospace" font-size="13" fill="#bc8cff" text-anchor="middle" font-weight="600">55ms</text>
    <text x="410" y="12" font-family="sans-serif" font-size="9" fill="#484f58" text-anchor="middle">SEARCH</text>
    
    <line x1="510" y1="6" x2="510" y2="30" stroke="#30363d" stroke-width="1"/>
    
    <text x="600" y="23" font-family="'SF Mono', monospace" font-size="13" fill="#f778ba" text-anchor="middle" font-weight="600">99.88%</text>
    <text x="600" y="12" font-family="sans-serif" font-size="9" fill="#484f58" text-anchor="middle">REDUCTION</text>
    
    <line x1="700" y1="6" x2="700" y2="30" stroke="#30363d" stroke-width="1"/>
    
    <text x="760" y="23" font-family="'SF Mono', monospace" font-size="13" fill="#3fb950" text-anchor="middle" font-weight="600">3</text>
    <text x="760" y="12" font-family="sans-serif" font-size="9" fill="#484f58" text-anchor="middle">BACKENDS</text>
  </g>
</svg>
