<svg xmlns="http://www.w3.org/2000/svg" width="1200" height="300" viewBox="0 0 1200 300">
  <defs>
    <linearGradient id="bg" x1="0%" y1="0%" x2="100%" y2="100%">
      <stop offset="0%" style="stop-color:#f6f8fa;stop-opacity:1" />
      <stop offset="100%" style="stop-color:#eef1f5;stop-opacity:1" />
    </linearGradient>
    <linearGradient id="accent" x1="0%" y1="0%" x2="100%" y2="0%">
      <stop offset="0%" style="stop-color:#0969da" />
      <stop offset="50%" style="stop-color:#8250df" />
      <stop offset="100%" style="stop-color:#bf3989" />
    </linearGradient>
  </defs>
  
  <rect width="1200" height="300" rx="12" fill="url(#bg)" stroke="#d0d7de" stroke-width="1" />
  
  <g opacity="0.04" stroke="#0969da" stroke-width="0.5">
    <line x1="0" y1="60" x2="1200" y2="60" />
    <line x1="0" y1="120" x2="1200" y2="120" />
    <line x1="0" y1="180" x2="1200" y2="180" />
    <line x1="0" y1="240" x2="1200" y2="240" />
    <line x1="150" y1="0" x2="150" y2="300" />
    <line x1="300" y1="0" x2="300" y2="300" />
    <line x1="450" y1="0" x2="450" y2="300" />
    <line x1="600" y1="0" x2="600" y2="300" />
    <line x1="750" y1="0" x2="750" y2="300" />
    <line x1="900" y1="0" x2="900" y2="300" />
    <line x1="1050" y1="0" x2="1050" y2="300" />
  </g>
  
  <g transform="translate(330, 50)">
    <ellipse cx="40" cy="10" rx="38" ry="10" fill="none" stroke="url(#accent)" stroke-width="2.5"/>
    <path d="M2,10 v35 a38,10 0 0,0 76,0 v-35" fill="none" stroke="url(#accent)" stroke-width="2.5"/>
    <ellipse cx="40" cy="45" rx="38" ry="10" fill="none" stroke="url(#accent)" stroke-width="2" opacity="0.6"/>
    <ellipse cx="40" cy="27" rx="38" ry="10" fill="none" stroke="url(#accent)" stroke-width="2" opacity="0.4"/>
    <line x1="78" y1="27" x2="105" y2="27" stroke="#0969da" stroke-width="2.5" opacity="0.8"/>
    <polygon points="102,20 115,27 102,34" fill="#0969da" opacity="0.8"/>
  </g>
  
  <text x="480" y="110" font-family="'SF Mono', 'Fira Code', 'Cascadia Code', monospace" font-size="72" font-weight="700" fill="url(#accent)">Sh4d0wDB</text>
  
  <text x="600" y="160" font-family="-apple-system, BlinkMacSystemFont, 'Segoe UI', sans-serif" font-size="24" fill="#57606a" text-anchor="middle">Kill your Markdown files.</text>
  
  <g transform="translate(0, 210)">
    <rect x="100" y="0" width="1000" height="50" rx="10" fill="#ffffff" stroke="#d0d7de" stroke-width="1" />
    
    <text x="250" y="33" font-family="'SF Mono', monospace" font-size="20" fill="#0969da" text-anchor="middle" font-weight="600">11 bytes</text>
    <text x="250" y="16" font-family="sans-serif" font-size="11" fill="#8c959f" text-anchor="middle">CONFIG</text>
    
    <line x1="420" y1="8" x2="420" y2="42" stroke="#d8dee4" stroke-width="1"/>
    
    <text x="550" y="33" font-family="'SF Mono', monospace" font-size="20" fill="#8250df" text-anchor="middle" font-weight="600">55ms</text>
    <text x="550" y="16" font-family="sans-serif" font-size="11" fill="#8c959f" text-anchor="middle">SEARCH</text>
    
    <line x1="690" y1="8" x2="690" y2="42" stroke="#d8dee4" stroke-width="1"/>
    
    <text x="810" y="33" font-family="'SF Mono', monospace" font-size="20" fill="#bf3989" text-anchor="middle" font-weight="600">99.88%</text>
    <text x="810" y="16" font-family="sans-serif" font-size="11" fill="#8c959f" text-anchor="middle">REDUCTION</text>
    
    <line x1="940" y1="8" x2="940" y2="42" stroke="#d8dee4" stroke-width="1"/>
    
    <text x="1020" y="33" font-family="'SF Mono', monospace" font-size="20" fill="#1a7f37" text-anchor="middle" font-weight="600">3</text>
    <text x="1020" y="16" font-family="sans-serif" font-size="11" fill="#8c959f" text-anchor="middle">BACKENDS</text>
  </g>
</svg>
